Coordinates
version=1
nRows=11
nColumns=40
inDegrees=yes

Units are S.I. units (second, meters, Newtons, ...)
Angles are in degrees.

endheader
time	pelvis_tilt	pelvis_list	pelvis_rotation	pelvis_tx	pelvis_ty	pelvis_tz	hip_flexion_r	hip_adduction_r	hip_rotation_r	knee_angle_r	knee_angle_r_beta	ankle_angle_r	subtalar_angle_r	mtp_angle_r	hip_flexion_l	hip_adduction_l	hip_rotation_l	knee_angle_l	knee_angle_l_beta	ankle_angle_l	subtalar_angle_l	mtp_angle_l	lumbar_extension	lumbar_bending	lumbar_rotation	arm_flex_r	arm_add_r	arm_rot_r	elbow_flex_r	pro_sup_r	wrist_flex_r	wrist_dev_r	arm_flex_l	arm_add_l	arm_rot_l	elbow_flex_l	pro_sup_l	wrist_flex_l	wrist_dev_l
     25.48000000	     -2.33933769	     -3.53088248	      4.39664483	      1.09581702	      0.93295672	      0.50860906	     11.41545817	      0.35596737	    -18.15730925	     18.34691598	     18.34691598	     10.90245720	     -0.20394977	     -4.29437531	     29.27540985	    -12.52868627	     -0.42592802	     55.27606822	     55.27606822	      9.60658932	    -17.48742860	     10.14988050	    -10.59345115	      5.65249329	      2.11050002	     17.15535768	    -24.08376135	     -3.25256465	     66.70344416	     45.30594837	      0.00000000	      0.00000000	      4.89181328	     -9.96150196	    -10.39364424	     38.33498608	     45.41211100	      0.00000000	      0.00000000
     25.49314286	     -2.48530570	     -3.43433826	      4.80548884	      1.09490423	      0.93327435	      0.50898251	     10.89928013	      0.37260088	    -18.47464163	     17.72130651	     17.72130651	     10.90643406	     -0.12833643	     -4.59185347	     30.10163749	    -12.16395060	     -0.50732504	     52.30812611	     52.30812611	      9.45426149	    -17.44878084	      9.35928867	    -10.48285298	      5.55240885	      2.09500132	     18.51744772	    -24.08472370	     -3.16052526	     67.53229776	     45.28651607	      0.00000000	      0.00000000	      4.39735797	     -9.82823278	    -10.01146367	     35.89322161	     45.41406978	      0.00000000	      0.00000000
     25.50628571	     -2.63851422	     -3.34486001	      5.14555110	      1.09395933	      0.93349024	      0.50938487	     10.48357824	      0.40681836	    -18.59478717	     17.25980803	     17.25980803	     11.04545334	     -0.25007479	     -4.57934331	     30.73532900	    -11.77168119	     -0.61722176	     49.07662478	     49.07662478	      9.58259865	    -17.12440719	      9.48984990	    -10.40267365	      5.42519157	      2.27040369	     19.77974086	    -24.23697190	     -3.36635900	     68.33988945	     45.27350144	      0.00000000	      0.00000000	      3.46489552	     -9.60747788	     -9.89804024	     35.14086139	     45.39357290	      0.00000000	      0.00000000
     25.51942857	     -2.64459798	     -3.32677135	      5.53462947	      1.09315711	      0.93384412	      0.50967571	      9.81362222	      0.55840040	    -18.77811538	     16.58861592	     16.58861592	     10.93452927	     -0.40053101	     -5.08748707	     30.90914644	    -11.40562005	     -0.68162198	     45.32120147	     45.32120147	      8.66962407	    -16.94587836	      7.23161359	    -10.44416786	      5.47183967	      2.23044787	     21.15162336	    -24.26443152	     -3.20388009	     69.66868982	     45.23881768	      0.00000000	      0.00000000	      3.24526608	     -9.52293232	     -9.14027663	     32.11522917	     45.36456343	      0.00000000	      0.00000000
     25.53257143	     -2.84527201	     -3.30392309	      5.87059213	      1.09218323	      0.93374352	      0.50986729	      9.54319763	      0.62005026	    -18.92095141	     16.28280712	     16.28280712	     11.10008319	     -0.54688611	     -5.11366187	     31.28614754	    -10.96279710	     -0.65366940	     41.71642368	     41.71642368	      8.74727713	    -16.13394355	      7.59442925	    -10.25459895	      5.45021779	      2.51640371	     22.37845980	    -24.51191837	     -3.44836306	     70.37293801	     45.23040616	      0.00000000	      0.00000000	      2.35879832	     -9.25164769	     -9.04976287	     31.59438011	     45.34355098	      0.00000000	      0.00000000
     25.54571429	     -2.81801636	     -3.18762924	      6.15845962	      1.09142099	      0.93403969	      0.50998942	      8.88996531	      0.65792014	    -18.98949809	     15.71794960	     15.71794960	     11.17140625	     -0.63821995	     -5.15582293	     31.10945990	    -10.41069569	     -0.63385369	     37.80421419	     37.80421419	      8.70785984	    -15.30196396	      7.69128050	    -10.44086432	      5.29375080	      2.23596009	     23.83769028	    -24.09687416	     -3.55417742	     71.68350167	     45.19887210	      0.00000000	      0.00000000	      1.47083527	     -9.22946915	     -8.76788135	     30.41807235	     45.30508500	      0.00000000	      0.00000000
     25.55885714	     -2.95082961	     -3.15658840	      6.42829965	      1.09053615	      0.93391945	      0.50998761	      8.53414693	      0.71869385	    -19.08419111	     15.36813334	     15.36813334	     11.28618463	     -0.76700035	     -5.29112542	     31.10678690	     -9.94389731	     -0.60653501	     34.01006722	     34.01006722	      8.63439650	    -14.02386548	      7.77774355	    -10.37107856	      5.25151279	      2.26263217	     25.15824547	    -24.01757904	     -3.64342602	     72.70500121	     45.17602668	      0.00000000	      0.00000000	      0.70490905	     -9.06847191	     -8.46768305	     29.42404955	     45.26215329	      0.00000000	      0.00000000
     25.57200000	     -3.07271513	     -3.14219765	      6.67670096	      1.08969214	      0.93369607	      0.50985641	      8.19361051	      0.78618540	    -19.15333153	     15.06623053	     15.06623053	     11.41621153	     -0.90989687	     -5.44279390	     31.02325602	     -9.50207044	     -0.59256252	     30.31486252	     30.31486252	      8.56690914	    -12.51548892	      7.89438597	    -10.30470894	      5.21478311	      2.28158592	     26.46426740	    -23.89201441	     -3.71630802	     73.77154727	     45.15109223	      0.00000000	      0.00000000	     -0.04019392	     -8.90435199	     -8.13896990	     28.49708686	     45.21271876	      0.00000000	      0.00000000
     25.58514286	     -3.17227560	     -3.14068220	      6.89434924	      1.08884503	      0.93345081	      0.50962333	      7.84600981	      0.86024176	    -19.18308467	     14.78817484	     14.78817484	     11.52984820	     -1.04984558	     -5.61621338	     30.89092836	     -9.08948107	     -0.59921434	     26.83470295	     26.83470295	      8.46147280	    -10.84620803	      7.96745037	    -10.28415900	      5.18503211	      2.23396011	     27.76251717	    -23.67258172	     -3.77445809	     74.96744856	     45.12190570	      0.00000000	      0.00000000	     -0.77166339	     -8.74006812	     -7.72165095	     27.58525957	     45.14933258	      0.00000000	      0.00000000
     25.59828571	     -3.29977074	     -3.16393239	      7.10397060	      1.08800602	      0.93308500	      0.50925232	      7.55281033	      0.94151411	    -19.21517588	     14.55612077	     14.55612077	     11.65759753	     -1.20603874	     -5.78083252	     30.79150401	     -8.70953549	     -0.67741698	     23.65702098	     23.65702098	      8.30525881	     -9.12904522	      8.10156344	    -10.22801236	      5.17120811	      2.22062429	     29.01292092	    -23.45205840	     -3.85915113	     76.17242501	     45.09336388	      0.00000000	      0.00000000	     -1.50009767	     -8.54430798	     -7.28584521	     26.85425178	     45.07949791	      0.00000000	      0.00000000
     25.61142857	     -3.42667549	     -3.20240227	      7.29544017	      1.08723607	      0.93265624	      0.50876868	      7.27693432	      1.02398267	    -19.22988078	     14.36694193	     14.36694193	     11.82038016	     -1.34894468	     -5.91882985	     30.73425510	     -8.35561546	     -0.78387732	     20.93144313	     20.93144313	      8.14761607	     -7.51530906	      8.28246352	    -10.12795372	      5.16609147	      2.23121438	     30.20428849	    -23.19416196	     -3.96645740	     77.36078409	     45.06568752	      0.00000000	      0.00000000	     -2.23344686	     -8.34092153	     -6.88594725	     26.30974409	     45.01084586	      0.00000000	      0.00000000
